<svg width="59" height="24" viewBox="0 0 59 24" fill="none" xmlns="http://www.w3.org/2000/svg">
<path d="M19.1158 8.51329H19.6424L19.6151 7.98735C19.5429 6.59653 19.1075 5.34785 18.3073 4.25512C17.528 3.15109 16.48 2.29681 15.1775 1.69016C13.8726 1.08243 12.4247 0.783173 10.8423 0.783173C9.22256 0.783173 7.7442 1.03562 6.41407 1.54951C5.08191 2.04729 4.00196 2.77627 3.19613 3.74693L3.1961 3.74691L3.19255 3.75129C2.39081 4.73948 1.99288 5.90658 1.99288 7.22896C1.99288 9.21013 2.60439 10.8091 3.87949 11.953C5.1211 13.0668 6.95 13.8259 9.30688 14.2732L9.30953 14.2737C10.5812 14.508 11.5461 14.7468 12.2175 14.9866L12.221 14.9878C12.9103 15.2283 13.3435 15.4966 13.5836 15.762L13.5834 15.7621L13.5923 15.7714C13.8316 16.0226 13.9604 16.3417 13.9604 16.7675C13.9604 17.2547 13.7495 17.6564 13.2443 17.9978L13.2443 17.9978L13.239 18.0014C12.7361 18.3507 12.0674 18.5446 11.1965 18.5446C9.97549 18.5446 9.02409 18.2682 8.30389 17.7556C7.60328 17.2284 7.20369 16.5478 7.08714 15.6883L7.02846 15.2555H6.59168H1.86035H1.33656L1.36089 15.7787C1.43243 17.3167 1.88182 18.6771 2.7194 19.8425L2.71938 19.8425L2.72241 19.8466C3.57192 21.0034 4.70765 21.8832 6.11424 22.4888C7.53504 23.1102 9.12235 23.4157 10.8676 23.4157C12.4751 23.4157 13.9487 23.1449 15.2812 22.5946C16.6174 22.0596 17.6894 21.2752 18.4759 20.2335C19.2884 19.1799 19.6917 17.9501 19.6917 16.5651C19.6917 14.8204 19.1577 13.3379 18.0693 12.1557C16.9886 10.9465 15.2407 10.1309 12.9173 9.64902L12.9171 9.64897C11.4584 9.34717 10.3564 9.08156 9.60261 8.85254C8.87469 8.60936 8.38168 8.34882 8.08234 8.0903C7.8252 7.86823 7.69891 7.595 7.69891 7.22896C7.69891 6.77727 7.89043 6.42341 8.35053 6.1342L8.35059 6.13429L8.35904 6.12874C8.83746 5.81434 9.54632 5.62896 10.5387 5.62896C11.5602 5.62896 12.3191 5.8643 12.8651 6.28431C13.4086 6.70236 13.7463 7.28863 13.8645 8.08657L13.9278 8.51329H14.3591H19.1158Z" stroke="#BBF744"/>
<path d="M40.5097 1.78918V22.4097H35.9049V14.035H26.7965V22.4097H22.1917V1.78918H26.7965V9.96147H35.9049V1.78918H40.5097Z" fill="#BBF744"/>
<path d="M56.5098 13.4232C56.5098 13.8554 56.364 14.2122 56.0726 14.4936C55.7912 14.775 55.4344 14.9157 55.0022 14.9157C54.5701 14.9157 54.2083 14.775 53.9168 14.4936C53.6354 14.2122 53.4947 13.8554 53.4947 13.4232C53.4947 12.9911 53.6354 12.6293 53.9168 12.3378C54.2083 12.0564 54.5701 11.9157 55.0022 11.9157C55.4344 11.9157 55.7912 12.0564 56.0726 12.3378C56.364 12.6293 56.5098 12.9911 56.5098 13.4232ZM50.5248 13.4232C50.5248 13.8554 50.3791 14.2122 50.0877 14.4936C49.8062 14.775 49.4495 14.9157 49.0173 14.9157C48.5851 14.9157 48.2233 14.775 47.9319 14.4936C47.6505 14.2122 47.5098 13.8554 47.5098 13.4232C47.5098 12.9911 47.6505 12.6293 47.9319 12.3378C48.2233 12.0564 48.5851 11.9157 49.0173 11.9157C49.4495 11.9157 49.8062 12.0564 50.0877 12.3378C50.3791 12.6293 50.5248 12.9911 50.5248 13.4232Z" fill="#BBF744"/>
<path d="M45.5098 17.9157C46.409 18.7331 47.4086 19.3735 48.5087 19.8367C49.6087 20.309 50.7758 20.5451 52.0098 20.5451C53.2438 20.5451 54.4108 20.309 55.5109 19.8367C56.6109 19.3735 57.6106 18.7331 58.5098 17.9157L58.5098 20.3544C57.5819 21.1718 56.5822 21.8031 55.5109 22.2481C54.4491 22.6932 53.282 22.9157 52.0098 22.9157C50.7375 22.9157 49.5657 22.6932 48.4943 22.2481C47.4325 21.8031 46.4377 21.1718 45.5098 20.3544L45.5098 17.9157Z" fill="#BBF744"/>
</svg>
