<svg width="123" height="123" viewBox="0 0 123 123" fill="none" xmlns="http://www.w3.org/2000/svg">
<path d="M10.3 26.7799L10.52 27.6499L10.75 26.1099C11.49 21.2199 14.08 16.8099 17.99 13.7799C14.01 10.5999 11.18 6.19988 9.94 1.24988L9.71997 0.379883L9.48999 1.91988C8.74999 6.80988 6.16 11.2199 2.25 14.2499C6.23 17.4299 9.05999 21.8299 10.3 26.7799Z" fill="#BBF744"/>
<path d="M122.271 15.4801C122.471 17.3301 121.121 18.9901 119.271 19.1801C117.421 19.3801 115.76 18.0301 115.57 16.1801C115.37 14.3301 116.72 12.6701 118.57 12.4801C120.42 12.2801 122.081 13.6301 122.271 15.4801Z" fill="#BBF744"/>
<path d="M114.3 39.3501C114.58 41.9901 112.66 44.3601 110.02 44.6401C107.38 44.9201 105.01 43.0001 104.73 40.3601C104.45 37.7201 106.37 35.3501 109.01 35.0701C111.65 34.7901 114.02 36.7101 114.3 39.3501Z" fill="#BBF744"/>
<path d="M121.28 60.8598C112.34 59.9398 103.4 59.3998 94.4601 58.9898C85.5401 58.5998 76.6301 58.3899 67.7101 58.3199C71.4001 54.5399 75.0301 50.7098 78.6001 46.8098C82.7201 42.2898 86.7901 37.6998 90.6601 32.9298C91.0301 32.4698 90.4201 31.8598 89.9701 32.2398C85.2001 36.1198 80.6201 40.1798 76.0901 44.2998C72.1901 47.8698 68.3601 51.5098 64.5801 55.1898C64.5101 46.2598 64.2901 37.3298 63.9001 28.3898C63.4901 19.4598 62.9501 10.5398 62.0301 1.60984C61.9401 0.749844 60.6801 0.749844 60.5901 1.60984C59.6801 10.5398 59.1401 19.4598 58.7201 28.3898C58.3301 37.3198 58.1101 46.2598 58.0401 55.1898C54.2501 51.4998 50.4101 47.8498 46.5101 44.2798C41.9901 40.1598 37.4101 36.1098 32.6601 32.2298C32.2001 31.8598 31.5901 32.4698 31.9701 32.9198C35.8501 37.6798 39.9001 42.2598 44.0201 46.7698C47.6001 50.6798 51.2402 54.5198 54.9302 58.2998C46.0002 58.3698 37.0601 58.5899 28.1301 58.9799C19.2001 59.3899 10.2801 59.9298 1.35008 60.8498C0.490078 60.9398 0.490078 62.1999 1.35008 62.2899C10.2801 63.1999 19.2001 63.7398 28.1301 64.1598C37.0601 64.5498 46.0002 64.7698 54.9302 64.8398C51.2402 68.6298 47.5901 72.4698 44.0201 76.3698C39.9001 80.8898 35.8501 85.4698 31.9701 90.2198C31.6001 90.6798 32.2101 91.2898 32.6601 90.9098C37.4201 87.0298 42.0001 82.9798 46.5101 78.8598C50.4101 75.2798 54.2501 71.6399 58.0401 67.9499C58.1101 76.8699 58.3201 85.7898 58.7101 94.7098C59.1201 103.65 59.6601 112.59 60.5801 121.53C60.6701 122.39 61.9301 122.39 62.0201 121.53C62.9401 112.59 63.4801 103.65 63.8901 94.7098C64.2801 85.7898 64.4902 76.8798 64.5602 67.9598C68.3402 71.6498 72.17 75.2798 76.07 78.8498C80.59 82.9698 85.1801 87.0398 89.9501 90.9098C90.4101 91.2798 91.0201 90.6698 90.6401 90.2198C86.7601 85.4498 82.7001 80.8698 78.5801 76.3398C75.0101 72.4398 71.38 68.6098 67.69 64.8298C76.61 64.7598 85.52 64.5498 94.44 64.1598C103.38 63.7498 112.32 63.1999 121.26 62.2899C122.12 62.1999 122.12 60.9398 121.26 60.8498L121.28 60.8598Z" fill="#BBF744"/>
</svg>
