<svg width="139" height="117" viewBox="0 0 139 117" fill="none" xmlns="http://www.w3.org/2000/svg">
<path d="M88.2795 47.5897C74.3095 38.9697 64.1094 21.3496 61.2294 0.0996094C58.3594 21.3496 48.1594 38.9797 34.1794 47.5897C31.4594 49.2697 24.6895 51.8496 24.6895 51.8496C24.6895 51.8496 31.4594 54.4296 34.1794 56.1096C48.1494 64.7296 58.3494 82.3496 61.2294 103.6C64.0994 82.3396 74.2995 64.7196 88.2795 56.1096C90.9995 54.4296 97.7695 51.8496 97.7695 51.8496C97.7695 51.8496 90.9995 49.2697 88.2795 47.5897Z" fill="#BBF744"/>
<path d="M21.2988 79.9693H19.3989V78.0693C19.3989 78.0693 19.3988 67.5693 16.0488 67.5693C12.6988 67.5693 12.6989 78.0693 12.6989 78.0693V79.9693H10.7988C10.7988 79.9693 0.298828 79.9693 0.298828 83.3193C0.298828 86.6693 10.7988 86.6693 10.7988 86.6693H12.6989V88.5693C12.6989 88.5693 12.6988 99.0693 16.0488 99.0693C19.3988 99.0693 19.3989 88.5693 19.3989 88.5693V86.6693H21.2988C21.2988 86.6693 31.7988 86.6693 31.7988 83.3193C31.7988 79.9693 21.2988 79.9693 21.2988 79.9693Z" fill="#BBF744"/>
<path d="M131.998 84.5495C122.878 79.6395 116.218 69.5995 114.338 57.4795C112.458 69.5895 105.808 79.6395 96.6783 84.5495C94.8983 85.5095 90.4883 86.9795 90.4883 86.9795C90.4883 86.9795 94.9083 88.4495 96.6783 89.4095C105.798 94.3195 112.458 104.359 114.338 116.479C116.218 104.369 122.868 94.3195 131.998 89.4095C133.778 88.4495 138.188 86.9795 138.188 86.9795C138.188 86.9795 133.768 85.5095 131.998 84.5495Z" fill="#BBF744"/>
<path d="M119.608 31.0601C119.608 33.9701 117.248 36.3301 114.338 36.3301C111.428 36.3301 109.068 33.9701 109.068 31.0601C109.068 28.1501 111.428 25.79 114.338 25.79C117.248 25.79 119.608 28.1501 119.608 31.0601Z" fill="#BBF744"/>
</svg>
